<?xml version="1.0" encoding="UTF-8" standalone="no"?>
<svg
   width="16"
   height="16"
   version="1.1"
   id="svg1"
   sodipodi:docname="MultiMeshInstance3D.svg"
   inkscape:version="1.4 (86a8ad7, 2024-10-11)"
   xmlns:inkscape="http://www.inkscape.org/namespaces/inkscape"
   xmlns:sodipodi="http://sodipodi.sourceforge.net/DTD/sodipodi-0.dtd"
   xmlns="http://www.w3.org/2000/svg"
   xmlns:svg="http://www.w3.org/2000/svg">
  <defs
     id="defs1" />
  <sodipodi:namedview
     id="namedview1"
     pagecolor="#ffffff"
     bordercolor="#000000"
     borderopacity="0.25"
     inkscape:showpageshadow="2"
     inkscape:pageopacity="0.0"
     inkscape:pagecheckerboard="0"
     inkscape:deskcolor="#d1d1d1"
     inkscape:zoom="45.254834"
     inkscape:cx="10.54031"
     inkscape:cy="7.3251843"
     inkscape:window-width="2560"
     inkscape:window-height="1417"
     inkscape:window-x="2552"
     inkscape:window-y="-8"
     inkscape:window-maximized="1"
     inkscape:current-layer="svg1" />
  <path
     id="path1"
     style="fill:#c38ef1;fill-opacity:1"
     inkscape:label="path1"
     d="M 3.6699219 1.3476562 C 2.197983 1.3516475 0.3416256 3.7791584 2 4.7304688 L 2 11.271484 C -0.12271923 12.489161 3.5127915 16.124672 4.7304688 14.001953 L 6 14.001953 L 6 12.001953 L 4.7304688 12.001953 C 4.5552136 11.698928 4.3030253 11.446739 4 11.271484 L 4 5.4375 L 6.0058594 7.4648438 L 6.0019531 6.0058594 L 7.4414062 6.0292969 L 5.4355469 4.0019531 L 11.269531 4.0019531 C 11.444786 4.3049784 11.696975 4.5552136 12 4.7304688 L 12 6 L 14 6 L 14 4.7304688 C 16.121335 3.512193 12.488584 -0.12088876 11.269531 2 L 4.7304688 2 C 4.4641019 1.5356552 4.0820648 1.3465387 3.6699219 1.3476562 z M 8 8 L 8 16 L 8.5722656 16 L 8.5722656 14.857422 L 9.7148438 14.857422 L 9.7148438 16 L 14.285156 16 L 14.285156 14.857422 L 15.427734 14.857422 L 15.427734 16 L 16 16 L 16 8 L 15.427734 8 L 15.427734 9.1425781 L 14.285156 9.1425781 L 14.285156 8 L 9.7148438 8 L 9.7148438 9.1425781 L 8.5722656 9.1425781 L 8.5722656 8 L 8 8 z M 8.5722656 10.285156 L 9.7148438 10.285156 L 9.7148438 11.427734 L 8.5722656 11.427734 L 8.5722656 10.285156 z M 14.285156 10.285156 L 15.427734 10.285156 L 15.427734 11.427734 L 14.285156 11.427734 L 14.285156 10.285156 z M 8.5722656 12.572266 L 9.7148438 12.572266 L 9.7148438 13.714844 L 8.5722656 13.714844 L 8.5722656 12.572266 z M 14.285156 12.572266 L 15.427734 12.572266 L 15.427734 13.714844 L 14.285156 13.714844 L 14.285156 12.572266 z " />
</svg>
